# xmcd CD database file
#
# Track frame offsets:
#	182
#	11147
#	24500
#	35567
#	48000
#	59187
#	71412
#	81922
#	92277
#	103397
#
# Disc length: 1534 seconds
#
# Revision: 0
# Processed by: cddbd v1.5.2PL0 Copyright (c) Steve Scherf et al.
# Submitted via: CDex 1.70beta2
#
DISCID=8005fc0a
DTITLE=Various Artist - Country Favorites – The Number One Hits
DYEAR=1900
DGENRE=Country
TTITLE0=Roger Miller - King of the Road
TTITLE1=David Houston - Almost Persuaded
TTITLE2=Freddie Hart - Easy Loving
TTITLE3=Porter Wagoner - A Satisfied Mind
TTITLE4=Conway Twitty - Hello Darlin’
TTITLE5=Johnny Paycheck - Take This Job and Shove it
TTITLE6=Webb Pierce - In The Jailhouse Now
TTITLE7=Ferlin Husky - Wings of a Dove
TTITLE8=Billy Walker - Charlie’s Shoes
TTITLE9=Stonewall Jackson - Waterloo
EXTD=
EXTT0=
EXTT1=
EXTT2=
EXTT3=
EXTT4=
EXTT5=
EXTT6=
EXTT7=
EXTT8=
EXTT9=
PLAYORDER=
